<?xml version="1.0" encoding="utf-8"?>
<!-- Generator: Adobe Illustrator 20.1.0, SVG Export Plug-In . SVG Version: 6.00 Build 0)  -->
<svg version="1.1"
	 id="Capa_1" inkscape:version="0.92.2 (30a58d1, 2017-08-07)" sodipodi:docname="add.svg" xmlns:cc="http://creativecommons.org/ns#" xmlns:dc="http://purl.org/dc/elements/1.1/" xmlns:inkscape="http://www.inkscape.org/namespaces/inkscape" xmlns:rdf="http://www.w3.org/1999/02/22-rdf-syntax-ns#" xmlns:sodipodi="http://sodipodi.sourceforge.net/DTD/sodipodi-0.dtd" xmlns:svg="http://www.w3.org/2000/svg"
	 xmlns="http://www.w3.org/2000/svg" xmlns:xlink="http://www.w3.org/1999/xlink" x="0px" y="0px" viewBox="0 0 489.7 489.7"
	 style="enable-background:new 0 0 489.7 489.7;" xml:space="preserve">
<style type="text/css">
	.st0{stroke:#000000;}
</style>
<sodipodi:namedview  bordercolor="#666666" borderopacity="1" gridtolerance="10" guidetolerance="10" id="namedview41" inkscape:current-layer="Capa_1" inkscape:cx="271.42908" inkscape:cy="196.34987" inkscape:pageopacity="0" inkscape:pageshadow="2" inkscape:snap-grids="true" inkscape:window-height="1056" inkscape:window-maximized="1" inkscape:window-width="1855" inkscape:window-x="65" inkscape:window-y="24" inkscape:zoom="1.3630668" objecttolerance="10" pagecolor="#ffffff" showgrid="false">
	</sodipodi:namedview>
<g id="g10">
</g>
<g id="g12">
</g>
<g id="g14">
</g>
<g id="g16">
</g>
<g id="g18">
</g>
<g id="g20">
</g>
<g id="g22">
</g>
<g id="g24">
</g>
<g id="g26">
</g>
<g id="g28">
</g>
<g id="g30">
</g>
<g id="g32">
</g>
<g id="g34">
</g>
<g id="g36">
</g>
<g id="g38">
</g>
<path id="path3738" inkscape:connector-curvature="0" sodipodi:nodetypes="ccsccsc" class="st0" d="M392.7,414L74.7,96
	c0,0-9.4-10.5,0-20.8c10.4-11.4,21.8,0,21.8,0l317,317c0,0,11.9,10.9,1.6,22.3C405.1,425.4,392.7,414,392.7,414z"/>
<path id="path3738-7" inkscape:connector-curvature="0" inkscape:transform-center-x="6.5323989e-05" inkscape:transform-center-y="-144.52702" sodipodi:nodetypes="ccsccsc" class="st0" d="
	M75.7,392.7l318-318c0,0,10.5-9.4,20.8,0c11.4,10.4,0,21.8,0,21.8l-317,317c0,0-10.9,11.9-22.3,1.6
	C64.3,405.1,75.7,392.7,75.7,392.7L75.7,392.7z"/>
</svg>
